<svg width="24.019775" height="24.019722" viewBox="0 0 24.0198 24.0197" fill="none" xmlns="http://www.w3.org/2000/svg" xmlns:xlink="http://www.w3.org/1999/xlink">
	<desc>
			Created with Pixso.
	</desc>
	<defs>
		<clipPath id="clip2_33">
			<rect id="search (2) 1" rx="0.000000" width="23.019722" height="23.019722" transform="translate(0.500000 0.500000)" fill="white" fill-opacity="0"/>
		</clipPath>
	</defs>
	<rect id="search (2) 1" rx="0.000000" width="23.019722" height="23.019722" transform="translate(0.500000 0.500000)" fill="#FFFFFF" fill-opacity="0"/>
	<g clip-path="url(#clip2_33)">
		<path id="Vector" d="M23.73 22.32L17.77 16.35C19.39 14.36 20.19 11.82 20 9.26C19.81 6.7 18.64 4.31 16.73 2.58C14.83 0.86 12.33 -0.07 9.76 0C7.19 0.06 4.75 1.11 2.93 2.93C1.11 4.75 0.06 7.19 0 9.76C-0.07 12.33 0.86 14.83 2.58 16.73C4.31 18.64 6.7 19.81 9.26 20C11.82 20.19 14.36 19.39 16.35 17.77L22.32 23.73C22.51 23.92 22.76 24.02 23.02 24.01C23.29 24.01 23.54 23.91 23.72 23.72C23.91 23.54 24.01 23.29 24.01 23.02C24.02 22.76 23.92 22.51 23.73 22.32ZM10.03 18.03C8.44 18.03 6.9 17.56 5.58 16.68C4.27 15.8 3.24 14.55 2.64 13.09C2.03 11.63 1.87 10.02 2.18 8.47C2.49 6.91 3.25 5.49 4.37 4.37C5.49 3.25 6.91 2.49 8.47 2.18C10.02 1.87 11.63 2.03 13.09 2.64C14.55 3.24 15.8 4.27 16.68 5.58C17.56 6.9 18.03 8.44 18.03 10.03C18.02 12.15 17.18 14.18 15.68 15.68C14.18 17.18 12.15 18.02 10.03 18.03Z" fill="#000000" fill-opacity="1.000000" fill-rule="nonzero"/>
	</g>
</svg>
