<svg width="30.000000" height="30.000000" viewBox="0 0 30 30" fill="none" xmlns="http://www.w3.org/2000/svg" xmlns:xlink="http://www.w3.org/1999/xlink">
	<desc>
			Created with Pixso.
	</desc>
	<defs>
		<clipPath id="clip3_3">
			<rect id="heroicons-solid/bars-3" rx="0.000000" width="29.000000" height="29.000000" transform="translate(0.500000 0.500000)" fill="white" fill-opacity="0"/>
		</clipPath>
	</defs>
	<rect id="heroicons-solid/bars-3" rx="0.000000" width="29.000000" height="29.000000" transform="translate(0.500000 0.500000)" fill="#FFFFFF" fill-opacity="0"/>
	<g clip-path="url(#clip3_3)">
		<path id="Vector (Stroke)" d="M3.75 8.43C3.75 7.91 4.16 7.5 4.68 7.5L25.31 7.5C25.83 7.5 26.25 7.91 26.25 8.43C26.25 8.95 25.83 9.37 25.31 9.37L4.68 9.37C4.16 9.37 3.75 8.95 3.75 8.43ZM3.75 15C3.75 14.48 4.16 14.06 4.68 14.06L25.31 14.06C25.83 14.06 26.25 14.48 26.25 15C26.25 15.51 25.83 15.93 25.31 15.93L4.68 15.93C4.16 15.93 3.75 15.51 3.75 15ZM3.75 21.56C3.75 21.04 4.16 20.62 4.68 20.62L25.31 20.62C25.83 20.62 26.25 21.04 26.25 21.56C26.25 22.08 25.83 22.5 25.31 22.5L4.68 22.5C4.16 22.5 3.75 22.08 3.75 21.56Z" fill="#179800" fill-opacity="1.000000" fill-rule="evenodd"/>
	</g>
</svg>
