<svg width="28.015625" height="24.000004" viewBox="0 0 28.0156 24" fill="none" xmlns="http://www.w3.org/2000/svg" xmlns:xlink="http://www.w3.org/1999/xlink">
	<desc>
			Created with Pixso.
	</desc>
	<defs/>
	<path id="Vector" d="M26.68 1.09L27.47 1.09C27.77 1.09 28.01 0.84 28.01 0.54C28.01 0.24 27.77 0 27.47 0L24.06 0C23.83 0 23.62 0.14 23.54 0.35L22.2 4.02L2.72 4.02C1 4.02 -0.29 5.6 0.05 7.29L1.22 13.08C1.45 14.23 2.39 15.1 3.55 15.25L4.72 15.41L6.34 15.63L5.88 14.05L5.42 12.47C5.02 11.07 6.06 9.68 7.52 9.68L21.29 9.68L22.81 5.52L23.09 4.77C23.09 4.76 23.09 4.75 23.1 4.74L24.29 1.5L24.3 1.46L24.44 1.09L26.68 1.09ZM21.21 5.52L20.24 8.18L7.52 8.18Q7.03 8.18 6.58 8.3Q6.19 8.4 5.83 8.58Q5.48 8.77 5.18 9.01Q4.84 9.29 4.57 9.65Q4.31 10 4.13 10.4Q3.98 10.76 3.9 11.15Q3.83 11.55 3.84 11.95Q3.85 12.42 3.98 12.89L4.26 13.83L3.76 13.76Q3.51 13.73 3.31 13.62Q3.17 13.55 3.06 13.44Q2.91 13.31 2.82 13.14Q2.73 12.98 2.69 12.79L1.52 6.99Q1.48 6.81 1.5 6.63Q1.51 6.54 1.53 6.44Q1.56 6.34 1.61 6.24Q1.67 6.1 1.77 5.97Q1.87 5.85 2 5.76Q2.09 5.69 2.19 5.64Q2.28 5.6 2.37 5.57Q2.54 5.52 2.72 5.52L21.21 5.52Z" fill="#111111" fill-opacity="1.000000" fill-rule="evenodd"/>
	<path id="Vector" d="M3.26 19.68C2.27 19.88 1.52 20.76 1.52 21.81C1.52 23.02 2.5 24 3.7 24C4.77 24 5.65 23.23 5.85 22.22C5.87 22.09 5.88 21.95 5.88 21.81C5.88 21.58 5.85 21.35 5.78 21.13C5.73 20.99 5.67 20.85 5.59 20.72L15.97 20.72C15.89 20.85 15.83 20.99 15.79 21.13C15.72 21.35 15.68 21.58 15.68 21.81C15.68 21.95 15.69 22.09 15.72 22.22C15.91 23.23 16.79 24 17.86 24C18.92 24 19.81 23.23 20 22.22C20.03 22.09 20.04 21.95 20.04 21.81C20.04 21.58 20 21.35 19.93 21.13C19.88 20.99 19.82 20.85 19.75 20.72L20.81 20.72C21 20.72 21.18 20.69 21.35 20.64C22.5 20.25 22.89 18.64 21.82 17.8L20.34 16.63L20.18 16.51C20.1 16.45 20.01 16.41 19.92 16.39L18.88 16.25L19.02 15.86L19.41 14.81L20.34 12.27L20.89 10.77L7.52 10.77C6.79 10.77 6.27 11.47 6.47 12.16L7.53 15.79L16.97 17.09L18.05 17.24C18.05 17.24 18.06 17.24 18.07 17.24L19.62 17.45L20.48 18.13L20.53 18.17L21.14 18.66C21.55 18.98 21.32 19.63 20.81 19.63L3.7 19.63C3.55 19.63 3.4 19.65 3.26 19.68ZM17.46 21.13L18.25 21.13L18.45 21.47Q18.49 21.54 18.51 21.61Q18.54 21.71 18.54 21.81Q18.54 21.95 18.49 22.07Q18.44 22.2 18.34 22.3Q18.24 22.4 18.12 22.45Q18 22.5 17.86 22.5Q17.72 22.5 17.6 22.45Q17.48 22.4 17.38 22.3Q17.28 22.2 17.23 22.07Q17.18 21.95 17.18 21.81Q17.18 21.71 17.21 21.62Q17.23 21.54 17.27 21.47L17.46 21.13ZM17.5 15.65L18.74 12.27L8.06 12.27L8.69 14.44L17.5 15.65ZM4.1 21.13L3.7 21.13Q3.56 21.13 3.44 21.18Q3.32 21.23 3.22 21.33Q3.12 21.43 3.07 21.55Q3.02 21.67 3.02 21.81Q3.02 21.95 3.07 22.07Q3.12 22.2 3.22 22.3Q3.32 22.4 3.44 22.45Q3.56 22.5 3.7 22.5Q3.84 22.5 3.96 22.45Q4.08 22.4 4.18 22.3Q4.28 22.2 4.33 22.07Q4.38 21.95 4.38 21.81Q4.38 21.71 4.36 21.62Q4.33 21.54 4.29 21.47L4.1 21.13Z" fill="#111111" fill-opacity="1.000000" fill-rule="evenodd"/>
</svg>
